<?xml version="1.0" encoding="iso-8859-1"?>
<!-- Generator: Adobe Illustrator 18.0.0, SVG Export Plug-In . SVG Version: 6.00 Build 0)  -->
<!DOCTYPE svg PUBLIC "-//W3C//DTD SVG 1.1//EN" "http://www.w3.org/Graphics/SVG/1.1/DTD/svg11.dtd">
<svg version="1.1" id="Capa_1" xmlns="http://www.w3.org/2000/svg" xmlns:xlink="http://www.w3.org/1999/xlink" x="0px" y="0px"
	 viewBox="0 0 303.124 303.124" style="enable-background:new 0 0 303.124 303.124;" xml:space="preserve">
<g>
	<path d="M170.599,7.178C152.086,2.549,127.571,0,101.569,0C75.567,0,51.051,2.549,32.538,7.178C10.947,12.576,0,20.219,0,29.895
		V236.93c0,9.675,10.947,17.317,32.538,22.713c18.512,4.627,43.028,7.175,69.031,7.175c26.003,0,50.518-2.548,69.028-7.175
		c21.589-5.396,32.535-13.038,32.535-22.713V29.895C203.133,20.219,192.187,12.576,170.599,7.178z M191.133,136.356
		c0,2.155-9.659,9.435-38.523,14.123c-2.813-25.679-24.625-45.728-51.04-45.728c-26.416,0-48.23,20.049-51.043,45.728
		C21.66,145.791,12,138.512,12,136.356V45.193c5.184,2.81,12.031,5.287,20.538,7.413c18.514,4.628,43.03,7.176,69.032,7.176
		c26.002,0,50.517-2.549,69.028-7.176c8.506-2.126,15.352-4.603,20.535-7.413V136.356z M62.212,156.105
		c0-21.7,17.656-39.354,39.357-39.354c21.7,0,39.354,17.654,39.354,39.354s-17.654,39.355-39.354,39.355
		C79.868,195.46,62.212,177.806,62.212,156.105z M35.448,18.82C53.038,14.422,76.52,12,101.569,12c25.049,0,48.53,2.422,66.118,6.82
		c19.273,4.819,23.445,10.041,23.445,11.075c0,1.034-4.172,6.252-23.445,11.071c-17.588,4.396-41.069,6.818-66.118,6.818
		c-25.05,0-48.532-2.421-66.122-6.818C16.172,36.147,12,30.928,12,29.895C12,28.86,16.172,23.639,35.448,18.82z M167.688,248.001
		c-17.586,4.396-41.067,6.817-66.118,6.817s-48.533-2.421-66.122-6.817C16.172,243.184,12,237.964,12,236.93V151.7
		c9.956,5.41,24.685,8.818,38.643,10.951c3.227,25.235,24.826,44.809,50.926,44.809c26.099,0,47.696-19.574,50.923-44.809
		c13.957-2.133,28.686-5.541,38.641-10.951v85.229C191.133,237.964,186.961,243.184,167.688,248.001z"/>
	<path d="M58.214,40.053c11.613,1.548,27.011,2.401,43.355,2.401c16.348,0,31.746-0.853,43.359-2.401
		c15.759-2.101,21.618-4.855,21.618-10.162c0-5.308-5.859-8.063-21.618-10.164c-11.612-1.549-27.011-2.401-43.359-2.401
		c-16.346,0-31.743,0.852-43.355,2.401c-15.76,2.101-21.619,4.856-21.619,10.164C36.595,35.198,42.454,37.952,58.214,40.053z
		 M101.569,26.326c24.183,0,40.893,1.795,49.741,3.564c-8.85,1.769-25.56,3.564-49.741,3.564c-24.178,0-40.889-1.795-49.738-3.564
		C60.68,28.122,77.388,26.326,101.569,26.326z"/>
</g>
<g>
</g>
<g>
</g>
<g>
</g>
<g>
</g>
<g>
</g>
<g>
</g>
<g>
</g>
<g>
</g>
<g>
</g>
<g>
</g>
<g>
</g>
<g>
</g>
<g>
</g>
<g>
</g>
<g>
</g>
</svg>
